<?xml version="1.0" encoding="iso-8859-1"?>
<!-- Generator: Adobe Illustrator 23.0.1, SVG Export Plug-In . SVG Version: 6.00 Build 0)  -->
<svg version="1.1" xmlns="http://www.w3.org/2000/svg" xmlns:xlink="http://www.w3.org/1999/xlink" x="0px" y="0px"
	 viewBox="0 0 512 512" style="enable-background:new 0 0 512 512;" xml:space="preserve">
<g id="WORKSPACE" style="display:none;">
	
		<line id="XMLID_609_" style="display:inline;fill:none;stroke:#A01127;stroke-miterlimit:10;" x1="486" y1="-4" x2="486" y2="516"/>
	<line id="XMLID_608_" style="display:inline;fill:none;stroke:#A01127;stroke-miterlimit:10;" x1="-4" y1="26" x2="516" y2="26"/>
	
		<line id="XMLID_604_" style="display:inline;fill:none;stroke:#A01127;stroke-miterlimit:10;" x1="-4" y1="486" x2="516" y2="486"/>
	<line id="XMLID_603_" style="display:inline;fill:none;stroke:#A01127;stroke-miterlimit:10;" x1="26" y1="-4" x2="26" y2="516"/>
</g>
<g id="BULINE">
	<circle id="XMLID_1575_" style="fill:#27273D;" cx="256" cy="256" r="256"/>
</g>
<g id="Icons">
	<g id="XMLID_1465_">
		<path id="XMLID_1629_" style="fill:#FFFFFF;" d="M485.76,369.01C444.02,453.72,356.82,512,256,512S67.98,453.72,26.24,369.01
			H485.76z"/>
		<path id="XMLID_1562_" style="fill:#DB1B1B;" d="M419.73,69.67H93.23c-8.14,0-14.75,6.6-14.75,14.75v253.25h356V84.42
			C434.48,76.28,427.88,69.67,419.73,69.67z M413.18,317.67c-3.27,3.39-7.87,5.5-12.95,5.5s-9.68-2.11-12.95-5.5
			c-3.13-3.24-5.05-7.64-5.05-12.5c0-9.94,8.06-18,18-18s18,8.06,18,18C418.23,310.03,416.31,314.43,413.18,317.67z M400.23,83.84
			c9.94,0,18,8.06,18,18s-8.06,18-18,18s-18-8.06-18-18S390.29,83.84,400.23,83.84z M400.23,134.67c9.94,0,18,8.06,18,18
			c0,9.94-8.06,18-18,18s-18-8.06-18-18C382.23,142.73,390.29,134.67,400.23,134.67z M400.23,185.51c9.94,0,18,8.06,18,18
			s-8.06,18-18,18s-18-8.06-18-18S390.29,185.51,400.23,185.51z M400.23,236.34c9.94,0,18,8.06,18,18s-8.06,18-18,18s-18-8.06-18-18
			S390.29,236.34,400.23,236.34z M228.23,83.84c9.94,0,18,8.06,18,18s-8.06,18-18,18s-18-8.06-18-18S218.29,83.84,228.23,83.84z
			 M228.23,134.67c9.94,0,18,8.06,18,18c0,9.94-8.06,18-18,18s-18-8.06-18-18C210.23,142.73,218.29,134.67,228.23,134.67z
			 M170.9,83.84c9.94,0,18,8.06,18,18s-8.06,18-18,18c-9.94,0-18-8.06-18-18S160.96,83.84,170.9,83.84z M170.9,134.67
			c9.94,0,18,8.06,18,18c0,9.94-8.06,18-18,18c-9.94,0-18-8.06-18-18C152.9,142.73,160.96,134.67,170.9,134.67z M102.48,87.67
			c3.05-2.4,6.91-3.83,11.09-3.83c9.94,0,18,8.06,18,18s-8.06,18-18,18c-4.18,0-8.04-1.43-11.09-3.83
			c-4.21-3.29-6.91-8.41-6.91-14.17S98.27,90.96,102.48,87.67z M102.48,138.49c3.05-2.4,6.91-3.82,11.09-3.82c9.94,0,18,8.06,18,18
			c0,9.94-8.06,18-18,18c-4.18,0-8.04-1.42-11.09-3.82c-4.21-3.3-6.91-8.42-6.91-14.18S98.27,141.79,102.48,138.49z M102.48,189.33
			c3.05-2.4,6.91-3.82,11.09-3.82c9.94,0,18,8.06,18,18s-8.06,18-18,18c-4.18,0-8.04-1.42-11.09-3.82
			c-4.21-3.3-6.91-8.42-6.91-14.18S98.27,192.63,102.48,189.33z"/>
		<path id="XMLID_1561_" style="fill:#C91C1C;" d="M434.477,317.668v20h-356V84.418c0-8.15,6.61-14.75,14.75-14.75h9.25v18
			c-4.21,3.29-6.91,8.41-6.91,14.17s2.7,10.88,6.91,14.17v22.48c-4.21,3.3-6.91,8.42-6.91,14.18c0,5.76,2.7,10.88,6.91,14.18v22.48
			c-4.21,3.3-6.91,8.42-6.91,14.18s2.7,10.88,6.91,14.18v37.35c0,5.05,0.6,9.97,1.73,14.67c0.55,2.31,1.23,4.57,2.04,6.78v0.01
			c0.73,2,1.56,3.94,2.48,5.84c0.82,1.7,1.72,3.35,2.69,4.96c4.98,8.28,11.83,15.31,19.95,20.51c1.58,1.02,3.21,1.96,4.89,2.83
			c4.36,2.27,9.01,4.04,13.9,5.23c2.4,0.59,4.87,1.04,7.37,1.35h0.01c2.49,0.3,5.01,0.45,7.57,0.45h222.17
			c3.27,3.39,7.87,5.5,12.95,5.5c5.08,0,9.68-2.11,12.95-5.5H434.477z"/>
		<path id="XMLID_1560_" style="fill:#DB1B1B;" d="M448.231,389.672h-383.5c-4.556,0-8.25-3.694-8.25-8.25v-35.5
			c0-4.556,3.694-8.25,8.25-8.25h383.5c4.556,0,8.25,3.694,8.25,8.25v35.5C456.481,385.978,452.787,389.672,448.231,389.672z"/>
		<path id="XMLID_1559_" style="fill:#B21B1B;" d="M418.147,376.005H94.814c-7.502,0-13.583-6.081-13.583-13.583v0
			c0-7.502,6.081-13.583,13.583-13.583h323.333c7.502,0,13.583,6.081,13.583,13.583v0
			C431.731,369.924,425.649,376.005,418.147,376.005z"/>
		<circle id="XMLID_1558_" style="fill:#EF6565;" cx="113.564" cy="305.172" r="23.333"/>
		<circle id="XMLID_1557_" style="fill:#366FCA;" cx="113.564" cy="305.172" r="18"/>
		<circle id="XMLID_1556_" style="fill:#EF6565;" cx="170.897" cy="305.172" r="23.333"/>
		<circle id="XMLID_1555_" style="fill:#366FCA;" cx="170.897" cy="305.172" r="18"/>
		<circle id="XMLID_1554_" style="fill:#366FCA;" cx="312.216" cy="415.338" r="18"/>
		<circle id="XMLID_1553_" style="fill:#366FCA;" cx="360.897" cy="411.672" r="18"/>
		<circle id="XMLID_1552_" style="fill:#366FCA;" cx="330.216" cy="463.672" r="18"/>
		<circle id="XMLID_1551_" style="fill:#366FCA;" cx="382.227" cy="447.672" r="18"/>
		<circle id="XMLID_1550_" style="fill:#EF6565;" cx="228.231" cy="305.172" r="23.333"/>
		<circle id="XMLID_1549_" style="fill:#F7BB38;" cx="228.231" cy="305.172" r="18"/>
		<circle id="XMLID_1548_" style="fill:#F7BB38;" cx="228.231" cy="429.672" r="18"/>
		<circle id="XMLID_1547_" style="fill:#F7BB38;" cx="173.564" cy="415.338" r="18"/>
		<circle id="XMLID_1546_" style="fill:#F7BB38;" cx="181.564" cy="465.672" r="18"/>
		<circle id="XMLID_1545_" style="fill:#F7BB38;" cx="122.231" cy="429.672" r="18"/>
		<circle id="XMLID_1544_" style="fill:#EF6565;" cx="285.564" cy="305.172" r="23.333"/>
		<circle id="XMLID_1543_" style="fill:#F7BB38;" cx="285.564" cy="305.172" r="18"/>
		<circle id="XMLID_1542_" style="fill:#EF6565;" cx="342.897" cy="305.172" r="23.333"/>
		<circle id="XMLID_1541_" style="fill:#366FCA;" cx="342.897" cy="305.172" r="18"/>
		<path id="XMLID_1537_" style="fill:#EF6565;" d="M400.23,281.84c-12.88,0-23.33,10.45-23.33,23.33c0,4.6,1.33,8.89,3.64,12.5
			c4.13,6.52,11.41,10.84,19.69,10.84c8.29,0,15.57-4.32,19.7-10.84c2.31-3.61,3.64-7.9,3.64-12.5
			C423.57,292.29,413.12,281.84,400.23,281.84z M400.23,323.17c-5.08,0-9.68-2.11-12.95-5.5c-3.13-3.24-5.05-7.64-5.05-12.5
			c0-9.94,8.06-18,18-18s18,8.06,18,18c0,4.86-1.92,9.26-5.05,12.5C409.91,321.06,405.31,323.17,400.23,323.17z"/>
		<circle id="XMLID_1536_" style="fill:#EF6565;" cx="113.564" cy="254.338" r="23.333"/>
		<circle id="XMLID_1535_" style="fill:#366FCA;" cx="113.564" cy="254.338" r="18"/>
		<circle id="XMLID_1534_" style="fill:#EF6565;" cx="170.897" cy="254.338" r="23.333"/>
		<circle id="XMLID_1533_" style="fill:#F7BB38;" cx="170.897" cy="254.338" r="18"/>
		<circle id="XMLID_1532_" style="fill:#EF6565;" cx="228.231" cy="254.338" r="23.333"/>
		<circle id="XMLID_1531_" style="fill:#366FCA;" cx="228.231" cy="254.338" r="18"/>
		<circle id="XMLID_1530_" style="fill:#EF6565;" cx="285.564" cy="254.338" r="23.333"/>
		<circle id="XMLID_1529_" style="fill:#F7BB38;" cx="285.564" cy="254.338" r="18"/>
		<circle id="XMLID_1528_" style="fill:#EF6565;" cx="342.897" cy="254.338" r="23.333"/>
		<circle id="XMLID_1526_" style="fill:#366FCA;" cx="342.897" cy="254.338" r="18"/>
		<path id="XMLID_1522_" style="fill:#EF6565;" d="M400.23,231.01c-12.88,0-23.33,10.44-23.33,23.33s10.45,23.33,23.33,23.33
			c12.89,0,23.34-10.44,23.34-23.33S413.12,231.01,400.23,231.01z M400.23,272.34c-9.94,0-18-8.06-18-18s8.06-18,18-18
			s18,8.06,18,18S410.17,272.34,400.23,272.34z"/>
		<path id="XMLID_1518_" style="fill:#EF6565;" d="M113.57,180.17c-4.02,0-7.79,1.01-11.09,2.8c-7.29,3.94-12.25,11.66-12.25,20.54
			c0,8.87,4.96,16.59,12.25,20.53c3.3,1.79,7.07,2.8,11.09,2.8c12.88,0,23.33-10.45,23.33-23.33
			C136.9,190.62,126.45,180.17,113.57,180.17z M113.57,221.51c-4.18,0-8.04-1.42-11.09-3.82c-4.21-3.3-6.91-8.42-6.91-14.18
			s2.7-10.88,6.91-14.18c3.05-2.4,6.91-3.82,11.09-3.82c9.94,0,18,8.06,18,18S123.51,221.51,113.57,221.51z"/>
		<circle id="XMLID_1517_" style="fill:#EF6565;" cx="170.897" cy="203.505" r="23.333"/>
		<circle id="XMLID_1516_" style="fill:#366FCA;" cx="170.897" cy="203.505" r="18"/>
		<circle id="XMLID_1515_" style="fill:#EF6565;" cx="228.231" cy="203.505" r="23.333"/>
		<circle id="XMLID_1514_" style="fill:#F7BB38;" cx="228.231" cy="203.505" r="18"/>
		<circle id="XMLID_1513_" style="fill:#EF6565;" cx="285.564" cy="203.505" r="23.333"/>
		<circle id="XMLID_1512_" style="fill:#366FCA;" cx="285.564" cy="203.505" r="18"/>
		<circle id="XMLID_1511_" style="fill:#EF6565;" cx="342.897" cy="203.505" r="23.333"/>
		<circle id="XMLID_1510_" style="fill:#366FCA;" cx="342.897" cy="203.505" r="18"/>
		<path id="XMLID_1506_" style="fill:#EF6565;" d="M400.23,180.17c-12.88,0-23.33,10.45-23.33,23.34
			c0,12.88,10.45,23.33,23.33,23.33c12.89,0,23.34-10.45,23.34-23.33C423.57,190.62,413.12,180.17,400.23,180.17z M400.23,221.51
			c-9.94,0-18-8.06-18-18s8.06-18,18-18s18,8.06,18,18S410.17,221.51,400.23,221.51z"/>
		<path id="XMLID_1502_" style="fill:#EF6565;" d="M113.57,129.34c-4.02,0-7.79,1.01-11.09,2.8c-7.29,3.94-12.25,11.66-12.25,20.53
			c0,8.88,4.96,16.6,12.25,20.54c3.3,1.79,7.07,2.8,11.09,2.8c12.88,0,23.33-10.45,23.33-23.34
			C136.9,139.79,126.45,129.34,113.57,129.34z M113.57,170.67c-4.18,0-8.04-1.42-11.09-3.82c-4.21-3.3-6.91-8.42-6.91-14.18
			s2.7-10.88,6.91-14.18c3.05-2.4,6.91-3.82,11.09-3.82c9.94,0,18,8.06,18,18C131.57,162.61,123.51,170.67,113.57,170.67z"/>
		<path id="XMLID_1498_" style="fill:#EF6565;" d="M170.9,129.34c-12.89,0-23.33,10.45-23.33,23.33c0,12.89,10.44,23.34,23.33,23.34
			c12.89,0,23.33-10.45,23.33-23.34C194.23,139.79,183.79,129.34,170.9,129.34z M170.9,170.67c-9.94,0-18-8.06-18-18
			c0-9.94,8.06-18,18-18c9.94,0,18,8.06,18,18C188.9,162.61,180.84,170.67,170.9,170.67z"/>
		<path id="XMLID_1494_" style="fill:#EF6565;" d="M228.23,129.34c-12.88,0-23.33,10.45-23.33,23.33
			c0,12.89,10.45,23.34,23.33,23.34c12.89,0,23.34-10.45,23.34-23.34C251.57,139.79,241.12,129.34,228.23,129.34z M228.23,170.67
			c-9.94,0-18-8.06-18-18c0-9.94,8.06-18,18-18s18,8.06,18,18C246.23,162.61,238.17,170.67,228.23,170.67z"/>
		<circle id="XMLID_1493_" style="fill:#EF6565;" cx="285.564" cy="152.672" r="23.333"/>
		<circle id="XMLID_1492_" style="fill:#F7BB38;" cx="285.564" cy="152.672" r="18"/>
		<circle id="XMLID_1491_" style="fill:#EF6565;" cx="342.897" cy="152.672" r="23.333"/>
		<circle id="XMLID_1490_" style="fill:#366FCA;" cx="342.897" cy="152.672" r="18"/>
		<path id="XMLID_1486_" style="fill:#EF6565;" d="M400.23,129.34c-12.88,0-23.33,10.45-23.33,23.33
			c0,12.89,10.45,23.34,23.33,23.34c12.89,0,23.34-10.45,23.34-23.34C423.57,139.79,413.12,129.34,400.23,129.34z M400.23,170.67
			c-9.94,0-18-8.06-18-18c0-9.94,8.06-18,18-18s18,8.06,18,18C418.23,162.61,410.17,170.67,400.23,170.67z"/>
		<path id="XMLID_1482_" style="fill:#EF6565;" d="M113.57,78.51c-4.02,0-7.79,1.01-11.09,2.79c-7.29,3.95-12.25,11.66-12.25,20.54
			s4.96,16.59,12.25,20.54c3.3,1.78,7.07,2.79,11.09,2.79c12.88,0,23.33-10.44,23.33-23.33S126.45,78.51,113.57,78.51z
			 M113.57,119.84c-4.18,0-8.04-1.43-11.09-3.83c-4.21-3.29-6.91-8.41-6.91-14.17s2.7-10.88,6.91-14.17
			c3.05-2.4,6.91-3.83,11.09-3.83c9.94,0,18,8.06,18,18S123.51,119.84,113.57,119.84z"/>
		<path id="XMLID_1478_" style="fill:#EF6565;" d="M170.9,78.51c-12.89,0-23.33,10.44-23.33,23.33s10.44,23.33,23.33,23.33
			c12.89,0,23.33-10.44,23.33-23.33S183.79,78.51,170.9,78.51z M170.9,119.84c-9.94,0-18-8.06-18-18s8.06-18,18-18
			c9.94,0,18,8.06,18,18S180.84,119.84,170.9,119.84z"/>
		<path id="XMLID_1474_" style="fill:#EF6565;" d="M228.23,78.51c-12.88,0-23.33,10.44-23.33,23.33s10.45,23.33,23.33,23.33
			c12.89,0,23.34-10.44,23.34-23.33S241.12,78.51,228.23,78.51z M228.23,119.84c-9.94,0-18-8.06-18-18s8.06-18,18-18s18,8.06,18,18
			S238.17,119.84,228.23,119.84z"/>
		<circle id="XMLID_1473_" style="fill:#EF6565;" cx="285.564" cy="101.838" r="23.333"/>
		<circle id="XMLID_1472_" style="fill:#366FCA;" cx="285.564" cy="101.838" r="18"/>
		<circle id="XMLID_1471_" style="fill:#EF6565;" cx="342.897" cy="101.838" r="23.333"/>
		<circle id="XMLID_1470_" style="fill:#F7BB38;" cx="342.897" cy="101.838" r="18"/>
		<path id="XMLID_1466_" style="fill:#EF6565;" d="M400.23,78.51c-12.88,0-23.33,10.44-23.33,23.33s10.45,23.33,23.33,23.33
			c12.89,0,23.34-10.44,23.34-23.33S413.12,78.51,400.23,78.51z M400.23,119.84c-9.94,0-18-8.06-18-18s8.06-18,18-18s18,8.06,18,18
			S410.17,119.84,400.23,119.84z"/>
	</g>
</g>
</svg>
